<svg width="108" height="167" viewBox="0 0 108 167" fill="none" xmlns="http://www.w3.org/2000/svg">
<path fill-rule="evenodd" clip-rule="evenodd" d="M47.958 50.5635C46.5627 48.8621 45.1597 47.1673 43.7489 45.4792C41.7645 43.1092 40.4456 41.3544 39.7922 40.2149C36.0316 33.6479 35.8621 25.0119 39.2308 18.255C39.6959 17.3243 40.2883 16.4814 41.0081 15.7262C41.0572 15.6747 41.1037 15.6191 41.1505 15.5631C41.3158 15.3653 41.4844 15.1635 41.7822 15.1298C41.8089 15.1267 41.8359 15.1304 41.8608 15.1406C41.8856 15.1507 41.9075 15.1671 41.9244 15.188C41.9413 15.2089 41.9527 15.2338 41.9574 15.2603C41.9622 15.2868 41.9602 15.3141 41.9516 15.3397C39.7357 21.8367 39.9583 29.1167 44.513 34.5509C44.6104 34.6664 44.6758 34.6508 44.709 34.5042C45.8086 29.6664 49.2669 24.2822 54.0176 22.3598C54.6111 22.1177 54.7374 22.2698 54.3963 22.8162C50.6456 28.8235 49.4098 38.0726 54.2402 43.9632C54.7883 44.6329 55.6189 44.9594 56.5291 45.0794C63.3129 45.9623 70.399 44.0532 74.8573 38.599C76.9935 35.9835 78.4353 32.895 78.8173 29.5598C79.3189 25.2218 78.3256 20.6239 76.2028 16.8823C75.9636 16.458 76.0577 16.3614 76.4852 16.5924C82.867 20.0109 86.3353 27.0343 85.9333 34.2243C85.8912 34.9374 85.7761 35.5904 85.5878 36.1835C85.5236 36.3789 85.5834 36.4289 85.7672 36.3334C89.1425 34.5475 91.1989 30.9658 91.6042 27.2309C92.2261 21.4708 89.6573 18.2023 86.5529 14.2524L86.552 14.2512C86.191 13.7919 85.8228 13.3235 85.4516 12.8408C83.2058 9.91548 81.3477 6.68918 79.8771 3.1619C79.7043 2.74654 79.8162 2.64548 80.2126 2.85871C83.5778 4.66558 86.4646 7.08785 89.4112 9.56033L89.4126 9.56151C89.7962 9.88342 90.1808 10.2062 90.5677 10.5285C91.3318 11.1649 92.8367 12.3044 93.8799 12.1511C94.1611 12.1089 94.3261 11.9468 94.3749 11.6647C95.0028 8.02634 94.1855 3.78162 92.7703 0.39317C92.7527 0.350655 92.7477 0.304048 92.756 0.259066C92.7642 0.214085 92.7854 0.172689 92.8168 0.139955C93.0006 -0.0488478 93.2088 -0.0466252 93.4413 0.14662C95.4457 1.81474 97.0614 3.80605 98.2883 6.12055C100.178 9.69447 100.991 13.5038 100.73 17.5487C100.728 17.5753 100.732 17.602 100.741 17.6272C100.75 17.6524 100.763 17.6755 100.781 17.6951C100.799 17.7148 100.821 17.7305 100.846 17.7414C100.87 17.7523 100.896 17.7582 100.923 17.7586C104.258 17.8119 105.61 13.0674 105.916 10.5918C105.931 10.463 106.002 10.3953 106.129 10.3886C106.168 10.3864 106.208 10.3875 106.248 10.3919C106.357 10.4008 106.429 10.4563 106.464 10.5585C108.092 15.2664 107.531 20.3474 105.959 24.9786C103.491 32.2486 97.2452 38.7456 90.664 42.4739C87.5988 44.2109 84.4018 45.6736 81.073 46.8619C80.0229 47.2364 78.9589 47.5937 77.8904 47.9525C73.3414 49.48 68.7118 51.0347 64.7248 54.0619C62.1037 56.0477 59.6121 59.043 57.3896 61.7551C57.2943 61.8706 57.312 61.8917 57.4427 61.8184C59.2034 60.8433 61.0672 59.9948 63.0339 59.2729C74.6547 55.0082 87.0529 52.2694 99.1953 50.6368C99.6604 50.5724 99.7722 50.7423 99.5308 51.1466C98.3924 53.0457 97.2241 54.9104 96.026 56.7407C93.242 61.0021 91.0394 64.2606 87.3452 66.5995C83.9633 68.7419 79.7907 69.0584 76.0002 68.1788C75.8839 68.152 75.768 68.1252 75.6523 68.0984C73.5392 67.6095 71.5109 67.1403 69.429 67.1593C65.3339 67.1992 61.4315 68.1322 57.7218 69.958C57.6908 69.9735 57.6819 69.998 57.6952 70.0313C57.7085 70.0646 57.7317 70.0757 57.765 70.0646C61.3661 68.8718 66.8178 70.0146 70.3459 71.1941C72.2041 71.816 74.0678 72.4258 75.937 73.0233C76.0389 73.0566 76.1197 73.1177 76.1795 73.2065C86.9423 88.8327 86.7824 107.061 86.6243 125.076C86.6173 125.867 86.6104 126.658 86.6044 127.448C86.6022 127.687 86.5151 127.917 86.3586 128.098C80.4647 134.891 74.4916 141.621 68.519 148.35L68.5184 148.351L68.5163 148.353C64.6326 152.728 60.7492 157.104 56.8879 161.496C55.5834 162.98 54.3 164.475 53.0376 165.981C53.0025 166.023 52.9588 166.056 52.9094 166.08C52.8601 166.103 52.8063 166.116 52.7517 166.116C52.6971 166.117 52.6431 166.106 52.5932 166.084C52.5433 166.061 52.4989 166.028 52.4628 165.987L19.3046 128.308C19.2757 128.276 19.2565 128.236 19.2492 128.193C19.242 128.15 19.247 128.106 19.2637 128.066C19.2804 128.026 19.3081 127.991 19.3435 127.966C19.379 127.941 19.4208 127.927 19.4641 127.925C26.6731 127.512 33.3506 125.153 38.3072 119.709C41.1477 116.587 43.2871 112.202 42.6227 108.054C42.5429 107.543 42.6293 107.513 42.8818 107.964L42.9883 108.154C44.1834 110.291 45.1218 111.969 45.6026 114.787C46.493 120.022 45.8053 126.252 42.9715 130.893C42.9626 130.911 42.966 130.926 42.9815 130.937L43.0512 130.987C43.1132 131.031 43.1686 131.024 43.2173 130.967C45.2505 128.517 47.1109 125.94 48.7985 123.237C52.0276 118.057 54.6189 113.127 56.5723 108.447C60.2001 99.741 62.19 92.0079 62.1967 83.2053C62.1967 82.761 62.1435 82.7555 62.0372 83.1886C61.6541 84.7657 61.0317 86.3294 60.1702 87.8798C56.177 95.0598 49.5992 96.1826 42.0247 95.463C40.0336 95.2742 37.7879 95.4463 35.2874 95.9794C31.4271 96.8057 27.6133 97.8086 23.846 98.988C21.7198 99.6544 20.154 100.266 19.1485 100.824C18.905 100.958 18.6687 101.09 18.4382 101.218L18.4369 101.219C15.979 102.589 14.1864 103.588 11.5109 103.323C10.2551 103.196 7.49445 100.331 6.63734 99.3679C6.28741 98.9725 6.04046 98.5182 5.8965 98.0051C5.87214 97.9141 5.81234 97.8674 5.7171 97.8652L4.26201 97.8485C3.99402 97.8463 3.79138 97.7297 3.65406 97.4987C2.28313 95.2086 1.08162 92.832 0.0495474 90.3686C-0.00618743 90.2351 -0.0151872 90.0866 0.0239988 89.9469C0.0631848 89.8072 0.148263 89.6846 0.265484 89.599L1.40666 88.7596L1.40705 88.7593C8.68018 83.41 15.9432 78.0681 23.0022 72.4735C23.3477 72.1981 23.6079 71.8482 23.7829 71.424C24.3388 70.0802 24.9445 68.7608 25.6001 67.4658C25.7263 67.2126 25.9123 67.026 26.1582 66.906C28.7207 65.6422 31.1303 64.1318 33.3871 62.3748C35.5067 60.7222 36.809 58.0601 34.8954 55.6979C33.1546 53.5422 31.4072 52.5326 28.6099 51.4498C28.3765 51.3593 28.1442 51.2694 27.913 51.1799C20.1168 48.1614 13.6006 45.6386 7.88978 39.5519C2.10263 33.3836 -0.40337 26.1814 0.371795 17.9451C0.81696 13.224 2.73384 7.43661 6.62738 4.53461C6.70022 4.47981 6.79169 4.45607 6.8819 4.46855C6.97211 4.48103 7.05375 4.52872 7.10908 4.60125C7.14894 4.65233 7.14119 4.74229 7.08582 4.87112C6.89356 5.339 6.67362 5.82257 6.45648 6.3C6.16335 6.9445 5.87529 7.57784 5.66727 8.14629C2.87668 15.7595 3.85671 25.1918 9.49769 31.3623C11.1455 33.1659 13.1321 34.4531 15.4576 35.2239C15.4802 35.2313 15.5042 35.2334 15.5277 35.2299C15.5512 35.2263 15.5735 35.2174 15.5926 35.2037C15.6118 35.19 15.6273 35.172 15.6379 35.1512C15.6485 35.1303 15.6539 35.1073 15.6536 35.084C15.5672 29.0834 17.5007 23.6425 21.6467 19.2879C22.4241 18.4704 23.3255 17.7474 24.3509 17.1188C24.5237 17.0122 24.6234 17.06 24.6499 17.2621C24.6566 17.3132 24.6256 17.4087 24.5569 17.5487C22.0022 22.8862 21.0919 29.5998 23.0819 35.1939C25.0054 40.6014 29.4637 44.2264 34.6363 46.5387C38.3659 48.2046 42.7932 49.5684 47.9182 50.6302C47.9957 50.6457 48.009 50.6235 47.958 50.5635ZM31.849 75.3422C32.5351 74.8203 33.0794 73.6879 33.6254 72.5519C34.3273 71.0916 35.0321 69.6252 36.0449 69.4416C38.0551 69.0754 40.125 68.923 42.1801 68.7717C43.1171 68.7027 44.0509 68.634 44.9747 68.5453C44.9901 68.5431 45.0057 68.5457 45.0194 68.5529C45.0331 68.5601 45.0442 68.5715 45.0514 68.5855C45.0586 68.5996 45.0615 68.6157 45.0596 68.6317C45.0578 68.6477 45.0514 68.6629 45.0412 68.6752C43.2827 70.8009 41.4444 72.7833 39.5265 74.6225C39.3116 74.8291 38.8587 74.9546 38.1677 74.999C36.5465 75.1012 34.9253 75.2056 33.3041 75.3122C32.7792 75.3477 32.3285 75.4233 31.952 75.5388C31.5467 75.6654 31.5124 75.5998 31.849 75.3422Z" fill="white"/>
<path d="M34.5233 99.5544C40.1842 100.667 45.4232 104.202 48.267 109.273C48.8628 110.337 49.2525 111.389 49.4364 112.429C49.4984 112.78 49.6102 112.796 49.7719 112.479C52.3366 107.454 53.9811 102.476 55.6488 97.1722C55.6953 97.019 55.6499 96.9823 55.5125 97.0622C55.3598 97.1496 55.2153 97.2493 55.0722 97.348C54.8605 97.4941 54.6522 97.6378 54.4262 97.7353C51.2791 99.1035 48.2526 99.7299 45.3468 99.6144C41.7478 99.4745 38.1478 99.3945 34.5466 99.3745C34.5377 99.3745 34.53 99.3767 34.5233 99.3812C34.4945 99.4034 34.4757 99.4289 34.4668 99.4578C34.4634 99.4676 34.4622 99.478 34.4632 99.4883C34.4642 99.4987 34.4675 99.5088 34.4729 99.5179C34.4782 99.527 34.4855 99.535 34.4942 99.5413C34.5028 99.5476 34.5128 99.5521 34.5233 99.5544Z" fill="white"/>
</svg>
